<?xml version="1.0" standalone="no"?>
<!DOCTYPE svg PUBLIC "-//W3C//DTD SVG 20010904//EN"
 "http://www.w3.org/TR/2001/REC-SVG-20010904/DTD/svg10.dtd">
<svg version="1.0" xmlns="http://www.w3.org/2000/svg"
 width="1080.000000pt" height="1080.000000pt" viewBox="0 0 1080.000000 1080.000000"
 preserveAspectRatio="xMidYMid meet">

<g transform="translate(0.000000,1080.000000) scale(0.100000,-0.100000)"
fill="#000000" stroke="none">
<path d="M5617 9312 l-98 -3 -24 -56 c-14 -30 -25 -60 -25 -66 0 -6 -16 -43
-35 -84 -19 -41 -35 -79 -35 -86 0 -7 -7 -21 -15 -31 -8 -11 -15 -30 -15 -42
0 -12 -7 -27 -15 -34 -8 -7 -18 -28 -21 -48 -4 -20 -13 -42 -20 -49 -16 -16
-11 -24 -152 257 l-107 215 -108 0 c-60 0 -111 -4 -114 -9 -7 -10 -3 -424 6
-661 l6 -170 90 0 90 0 -3 275 c-3 302 -6 291 53 170 14 -30 31 -62 36 -70 5
-8 12 -22 15 -30 3 -8 20 -46 38 -85 19 -38 43 -92 56 -118 l22 -48 70 3 69 3
26 65 c13 36 40 106 60 155 19 50 40 101 47 115 7 14 16 38 20 54 4 16 13 38
21 49 13 18 14 18 19 -14 3 -19 8 -106 11 -194 3 -88 9 -191 13 -230 l7 -70
80 0 80 0 -2 385 c-2 212 -5 399 -8 416 -7 38 -12 40 -138 36z"/>
<path d="M6822 8913 c-46 -93 -87 -175 -92 -183 -5 -8 -21 -40 -35 -70 -14
-30 -30 -63 -36 -72 -5 -10 -13 -26 -18 -35 -6 -10 -22 -43 -36 -73 -15 -30
-31 -62 -36 -70 -5 -8 -12 -22 -15 -30 -3 -8 -10 -22 -15 -30 -29 -47 -31 -64
-7 -82 32 -25 116 -68 134 -68 8 0 24 11 36 25 20 23 22 23 34 7 7 -9 14 -24
14 -33 0 -10 25 -40 55 -67 75 -69 188 -101 257 -73 13 5 35 12 50 15 37 8
129 95 155 147 47 95 53 117 53 198 0 94 -24 153 -82 207 -70 65 -105 79 -200
79 -49 0 -88 3 -88 6 0 3 31 67 70 142 l69 136 -91 46 c-51 25 -92 45 -93 45
0 0 -38 -75 -83 -167z m210 -342 c13 -5 38 -24 56 -42 28 -29 32 -39 31 -88
-1 -149 -134 -249 -242 -183 -50 32 -71 77 -65 144 10 123 120 207 220 169z"/>
<path d="M6105 9018 c-126 -31 -200 -104 -241 -237 -55 -183 60 -370 254 -412
98 -21 141 -22 204 -4 152 42 218 128 245 316 7 49 -21 137 -62 195 -39 55
-137 120 -194 129 -20 3 -55 10 -78 16 -49 11 -73 10 -128 -3z m194 -185 c44
-32 63 -80 58 -144 -8 -101 -75 -179 -153 -179 -34 0 -101 35 -119 64 -56 86
-23 223 65 269 43 22 111 18 149 -10z"/>
<path d="M3764 8728 c-36 -32 -74 -102 -74 -139 0 -34 -28 -20 -47 24 -7 15
-18 27 -24 27 -6 0 -38 -16 -70 -35 -33 -19 -63 -35 -68 -35 -4 0 -12 -5 -18
-11 -12 -12 -8 -21 47 -118 8 -15 38 -66 65 -115 28 -48 59 -104 71 -125 12
-20 41 -73 64 -118 51 -99 59 -101 158 -46 37 20 69 38 71 39 4 4 -26 66 -65
134 -71 123 -104 194 -104 221 0 47 24 92 69 131 25 21 41 44 41 57 0 21 -54
126 -70 136 -5 3 -25 -9 -46 -27z"/>
<path d="M7676 8605 c-43 -44 -51 -76 -30 -121 43 -89 160 -81 201 14 12 29
12 37 -3 67 -19 40 -69 75 -108 75 -17 0 -38 -12 -60 -35z"/>
<path d="M4397 8476 c-38 -17 -47 -32 -47 -84 0 -60 32 -92 95 -92 61 0 95 32
95 89 0 31 -7 46 -31 70 -33 34 -64 38 -112 17z"/>
<path d="M7516 8396 c-14 -19 -26 -37 -26 -39 0 -3 -12 -19 -27 -35 -14 -17
-40 -50 -57 -75 -17 -24 -63 -87 -102 -139 -40 -53 -88 -118 -108 -146 l-35
-51 27 -21 c72 -56 122 -90 131 -90 6 0 18 12 28 28 9 15 31 43 48 63 16 20
75 98 130 174 55 75 117 160 138 188 20 28 36 56 34 62 -3 11 -138 115 -148
115 -4 0 -18 -15 -33 -34z"/>
<path d="M3194 8345 c-75 -24 -120 -53 -181 -119 -66 -70 -93 -133 -93 -218 0
-126 93 -263 215 -317 113 -50 263 -13 373 93 59 57 100 132 104 192 l3 49
-66 3 -66 3 -17 -45 c-23 -59 -87 -123 -132 -132 -44 -8 -103 1 -121 19 -12
12 -4 22 49 68 35 30 86 72 113 94 89 70 165 139 165 150 0 14 -57 74 -102
108 -37 29 -146 68 -183 66 -11 -1 -38 -7 -61 -14z m86 -167 c19 -13 35 -28
37 -35 5 -14 -38 -59 -93 -96 -23 -15 -52 -39 -64 -52 -32 -35 -46 -31 -57 13
-20 79 11 146 82 178 42 19 57 17 95 -8z"/>
<path d="M7966 8288 c-72 -77 -249 -267 -426 -458 -58 -62 -106 -116 -108
-120 -1 -4 30 -38 69 -75 l72 -68 61 64 c34 35 106 114 161 174 55 60 141 152
191 205 160 168 184 197 184 216 0 15 -104 121 -129 132 -3 1 -37 -31 -75 -70z"/>
<path d="M2636 7825 c-27 -13 -66 -41 -88 -62 -59 -57 -78 -100 -78 -179 l0
-66 -22 16 c-41 29 -51 30 -67 7 -9 -12 -33 -42 -53 -67 -21 -25 -38 -51 -38
-59 0 -14 57 -64 179 -157 42 -32 108 -83 146 -112 254 -196 350 -266 361
-266 14 0 124 131 124 146 -1 5 -22 25 -49 44 -125 91 -191 143 -191 151 0 5
9 9 21 9 30 0 110 38 142 69 16 14 40 49 55 76 22 43 26 62 26 135 0 73 -4 92
-26 135 -86 162 -301 250 -442 180z m137 -177 c116 -64 144 -106 139 -212 -3
-42 -83 -116 -126 -116 -72 1 -173 75 -196 145 -7 20 -9 52 -6 70 16 85 123
149 189 113z"/>
<path d="M7994 7801 c-74 -25 -194 -116 -194 -147 0 -6 -6 -17 -14 -23 -7 -6
-21 -40 -31 -76 -16 -61 -16 -69 0 -134 38 -156 206 -315 315 -299 23 3 25 8
28 65 l3 62 -49 25 c-71 36 -122 92 -123 136 -2 72 3 105 19 117 20 15 27 9
159 -163 142 -185 137 -181 169 -164 14 8 44 34 65 59 94 106 114 221 60 335
-53 110 -123 175 -225 209 -62 21 -117 21 -182 -2z m243 -205 c27 -30 33 -44
33 -82 0 -44 -29 -104 -50 -104 -10 0 -141 154 -158 187 -11 19 -9 23 16 32
15 6 49 9 76 7 42 -3 55 -9 83 -40z"/>
<path d="M2202 7126 c-62 -33 -136 -110 -162 -169 -12 -29 -27 -61 -33 -72 -6
-11 -13 -57 -15 -101 -4 -72 -1 -88 23 -143 33 -72 92 -131 169 -166 72 -33
207 -35 273 -5 62 28 134 105 173 185 33 67 35 75 35 175 -1 97 -3 109 -29
152 -37 64 -104 120 -172 146 -79 31 -202 30 -262 -2z m203 -197 c106 -63 129
-168 54 -245 -38 -39 -71 -48 -140 -39 -43 6 -58 15 -105 60 -48 48 -54 58
-54 95 0 48 29 109 62 130 49 32 130 31 183 -1z"/>
<path d="M8905 7044 c-22 -8 -58 -21 -80 -28 -22 -8 -105 -37 -185 -66 -80
-29 -165 -59 -190 -66 -24 -8 -49 -19 -54 -24 -6 -6 -19 -10 -29 -10 -10 0
-33 -6 -50 -14 -18 -8 -56 -22 -84 -31 -29 -9 -55 -20 -58 -25 -5 -8 55 -183
81 -233 8 -16 14 -35 14 -44 0 -17 20 -66 57 -138 38 -74 127 -161 201 -197
60 -29 67 -30 180 -26 108 3 122 6 182 35 84 41 155 111 194 193 29 61 30 72
30 176 -1 104 -4 119 -44 235 -23 68 -47 128 -51 134 -5 5 -9 18 -10 30 0 25
-40 108 -54 111 -5 2 -28 -4 -50 -12z m-11 -259 c9 -13 16 -32 16 -42 0 -10 7
-31 16 -48 25 -47 24 -151 -2 -205 -42 -87 -129 -140 -241 -148 -61 -4 -79 -1
-115 18 -78 40 -98 67 -148 207 -21 59 -21 83 2 83 5 0 24 6 41 14 18 8 51 20
74 26 23 6 45 15 48 20 3 6 15 10 27 10 11 0 34 6 51 14 52 22 191 74 203 75
7 1 19 -10 28 -24z"/>
<path d="M1611 6497 c-6 -9 -14 -32 -17 -54 -3 -21 -12 -55 -20 -77 -8 -21
-13 -40 -11 -42 2 -2 37 -13 78 -25 41 -11 90 -25 109 -31 19 -6 60 -17 90
-24 76 -17 136 -33 195 -49 134 -38 204 -58 249 -71 26 -8 61 -14 77 -14 15 0
31 -4 34 -10 15 -24 33 -6 49 48 10 31 22 72 28 91 13 43 -3 57 -71 66 -25 4
-60 13 -78 21 -17 8 -39 14 -49 14 -10 0 -45 9 -78 19 -119 37 -173 51 -197
51 -14 0 -29 4 -35 10 -5 5 -39 16 -74 24 -36 8 -101 24 -145 36 -118 33 -120
33 -134 17z"/>
<path d="M8713 6071 c-34 -3 -68 -12 -75 -18 -6 -7 -19 -13 -28 -13 -8 0 -29
-12 -45 -27 -98 -90 -135 -215 -104 -350 15 -68 64 -165 100 -199 l30 -29 39
45 c22 25 40 53 40 63 0 10 -13 37 -29 60 -37 55 -47 123 -26 174 19 46 63 93
86 93 20 0 23 -20 38 -210 20 -245 25 -261 81 -242 18 7 42 12 53 12 28 0 103
37 148 72 20 15 48 52 63 81 23 47 26 66 26 154 0 81 -4 110 -21 149 -30 67
-70 116 -127 152 -53 34 -134 45 -249 33z m201 -210 c66 -44 86 -126 44 -187
-13 -18 -34 -36 -48 -39 -14 -3 -32 -8 -42 -11 -20 -6 -25 14 -34 154 l-6 102
28 0 c16 0 42 -9 58 -19z"/>
<path d="M1915 6047 c-68 -24 -131 -80 -166 -149 -32 -61 -40 -227 -13 -296
24 -63 97 -139 164 -171 47 -22 69 -26 155 -26 85 0 106 3 142 23 121 64 169
148 180 317 5 73 -5 122 -39 193 -32 65 -45 67 -103 17 l-50 -43 23 -46 c15
-33 22 -65 22 -107 0 -46 -5 -67 -22 -90 -21 -29 -84 -69 -108 -69 -13 0 -13
123 0 169 5 19 14 90 20 159 9 101 9 127 -2 133 -24 16 -142 8 -203 -14z m81
-259 c-3 -50 -6 -105 -6 -122 0 -50 -13 -62 -48 -47 -55 23 -84 63 -85 119 -2
59 20 97 74 124 68 35 73 30 65 -74z"/>
<path d="M9065 5354 c-22 -8 -62 -19 -90 -24 -27 -6 -59 -14 -70 -19 -11 -4
-63 -18 -115 -30 -94 -22 -122 -30 -250 -69 l-65 -20 -7 -48 c-3 -27 -9 -74
-13 -104 l-7 -55 301 -148 c166 -82 308 -147 315 -144 9 4 15 32 18 89 3 46 4
88 1 93 -2 6 -25 18 -51 29 -26 10 -60 25 -77 32 -16 7 -59 25 -95 39 -36 14
-79 33 -97 41 -17 8 -37 14 -45 14 -7 0 -24 7 -36 16 -22 15 -22 17 -6 35 13
14 31 19 74 19 31 0 79 6 106 14 27 8 72 17 99 21 28 4 73 12 100 19 62 16 74
37 77 137 3 84 -1 88 -67 63z"/>
<path d="M1690 5333 c0 -16 3 -58 6 -95 l7 -67 46 -15 c25 -9 71 -18 101 -22
30 -3 74 -12 98 -20 23 -8 60 -14 82 -14 33 0 126 -24 139 -36 9 -8 -23 -34
-41 -34 -11 0 -34 -6 -51 -14 -18 -8 -77 -33 -132 -56 -55 -22 -112 -47 -127
-55 -14 -8 -33 -15 -42 -15 -30 0 -36 -33 -24 -129 6 -50 14 -91 17 -90 3 0
40 18 81 39 41 21 95 48 120 60 25 11 56 27 70 34 14 8 63 33 110 55 47 23 92
45 100 51 8 5 41 22 74 36 l58 28 -6 40 c-4 23 -10 71 -13 107 l-6 67 -46 10
c-55 13 -126 32 -236 62 -82 23 -151 40 -264 66 -35 8 -72 19 -82 24 -29 16
-39 12 -39 -17z"/>
<path d="M8518 4701 c-129 -60 -208 -192 -211 -351 -1 -77 14 -140 38 -160 10
-8 26 -4 68 16 l56 28 -6 80 c-7 96 8 140 58 179 35 26 85 37 107 23 10 -6 9
-12 -3 -29 -8 -12 -15 -34 -15 -48 0 -15 -7 -40 -15 -56 -7 -15 -24 -62 -36
-103 -12 -41 -28 -89 -35 -107 -39 -89 -5 -118 141 -118 84 0 107 4 141 22 54
29 109 91 141 161 22 48 26 72 27 154 1 88 -1 101 -29 153 -58 112 -173 176
-313 174 -51 0 -90 -7 -114 -18z m258 -228 c27 -17 64 -81 64 -110 0 -10 -8
-37 -17 -59 -13 -32 -28 -47 -61 -63 -23 -12 -51 -21 -61 -21 -23 0 -43 22
-37 41 41 141 72 229 82 229 3 0 16 -7 30 -17z"/>
<path d="M2282 4665 c-29 -61 -28 -85 8 -119 69 -64 89 -158 49 -222 -22 -37
-54 -60 -63 -45 -3 4 -17 46 -31 92 -14 46 -32 97 -40 112 -8 16 -15 38 -15
48 0 11 -5 30 -11 41 -6 12 -16 42 -23 67 l-11 46 -45 -1 c-34 0 -59 -9 -103
-37 -58 -37 -106 -83 -107 -101 0 -5 -7 -18 -17 -28 -13 -14 -16 -40 -17 -121
0 -95 2 -106 33 -169 46 -95 118 -159 205 -182 36 -10 78 -16 94 -13 15 3 51
11 81 16 30 6 57 14 60 19 3 5 18 12 32 15 38 10 124 107 143 163 35 103 9
254 -61 354 -35 50 -104 109 -129 110 -5 0 -20 -20 -32 -45z m-177 -216 c4
-16 11 -31 16 -34 5 -4 9 -17 9 -31 0 -14 6 -37 14 -53 8 -15 16 -45 18 -67 3
-36 1 -39 -24 -42 -43 -5 -105 33 -128 78 -32 62 -27 97 21 146 46 47 64 47
74 3z"/>
<path d="M8148 4024 c-22 -47 -38 -87 -36 -90 19 -18 784 -391 795 -387 8 3
32 40 53 83 36 72 38 79 22 92 -9 7 -84 47 -167 87 -82 40 -157 77 -165 82
-77 42 -439 219 -449 219 -7 0 -30 -39 -53 -86z"/>
<path d="M2323 4014 c-12 -3 -27 -12 -33 -20 -7 -8 -23 -14 -35 -14 -12 0 -28
-7 -35 -15 -7 -8 -18 -15 -24 -15 -20 0 -121 -104 -142 -146 -33 -64 -57 -169
-51 -222 12 -98 43 -176 120 -296 6 -11 32 -52 57 -90 24 -39 53 -88 63 -108
11 -21 23 -38 28 -38 7 0 30 13 139 79 8 5 43 26 78 46 34 20 68 42 75 48 7 7
37 25 67 41 30 16 69 38 85 50 17 12 41 27 55 34 53 27 214 129 217 138 2 5
-12 34 -31 64 -19 30 -49 80 -66 110 -120 203 -184 276 -289 327 -48 24 -69
28 -156 29 -55 2 -110 0 -122 -2z m248 -217 c47 -25 103 -91 143 -169 l25 -47
-50 -36 c-27 -19 -51 -35 -53 -35 -6 0 -140 -82 -146 -89 -3 -3 -25 -17 -50
-30 -25 -13 -65 -37 -89 -53 -24 -16 -47 -26 -52 -21 -4 4 -30 48 -58 96 -46
79 -51 95 -51 147 0 182 222 320 381 237z"/>
<path d="M8065 3743 c-11 -3 -27 -11 -35 -18 -8 -7 -25 -16 -36 -19 -26 -8
-111 -99 -138 -146 -87 -155 -71 -299 46 -411 74 -71 146 -103 233 -103 97 0
163 33 248 123 73 78 107 150 115 244 10 119 -69 245 -190 306 -56 27 -73 31
-143 30 -44 -1 -89 -4 -100 -6z m122 -194 c24 -7 57 -28 79 -50 30 -31 38 -47
42 -88 6 -69 -2 -94 -45 -136 -32 -31 -42 -35 -89 -35 -42 0 -62 6 -96 29 -58
39 -75 59 -92 109 -17 48 -8 87 31 136 23 29 87 58 113 51 8 -2 34 -9 57 -16z"/>
<path d="M7485 3448 c-11 -6 -24 -17 -30 -23 -5 -6 -29 -26 -52 -44 -40 -30
-56 -65 -34 -73 5 -1 37 -38 72 -82 35 -43 75 -91 88 -107 l24 -29 -49 0
c-105 0 -222 -92 -257 -202 -21 -68 -21 -92 0 -159 37 -120 145 -234 250 -265
66 -19 152 -15 204 10 75 36 159 134 159 186 0 14 5 32 11 40 8 13 12 12 26
-7 8 -13 23 -23 32 -23 19 1 141 113 141 130 0 6 -22 35 -48 63 -27 29 -70 79
-96 112 -27 33 -76 90 -110 127 -33 37 -79 89 -100 115 -21 26 -66 79 -100
117 -119 135 -109 127 -131 114z m187 -501 c15 -11 41 -38 59 -59 27 -34 31
-48 32 -97 0 -70 -22 -105 -88 -140 -44 -23 -45 -24 -91 -6 -53 20 -110 73
-130 121 -35 84 3 180 82 204 40 12 103 2 136 -23z"/>
<path d="M3103 3148 c-33 -13 -74 -41 -109 -76 -116 -114 -155 -263 -100 -377
33 -67 51 -87 116 -129 47 -31 63 -36 112 -36 34 0 58 -4 58 -11 0 -13 -43
-71 -96 -129 -87 -94 -96 -108 -85 -129 17 -31 112 -101 137 -101 18 0 43 24
101 97 43 53 93 113 111 132 18 20 47 56 64 81 18 25 51 65 74 90 24 25 62 70
86 100 24 31 65 82 93 114 l49 58 -24 19 c-39 30 -43 33 -88 73 l-43 39 -28
-27 -28 -27 -17 59 c-12 46 -27 70 -64 107 -92 92 -205 118 -319 73z m224
-199 c18 -11 40 -34 48 -49 17 -33 20 -97 6 -133 -23 -61 -119 -137 -171 -137
-28 0 -78 26 -112 58 -25 22 -28 33 -28 85 0 70 20 108 83 162 35 30 48 35 90
35 33 0 61 -7 84 -21z"/>
<path d="M6940 2734 c-90 -17 -259 -134 -260 -180 0 -6 -7 -17 -15 -24 -22
-18 -18 -57 8 -74 12 -8 40 -18 62 -21 38 -6 41 -4 68 35 72 103 182 130 262
66 l30 -25 -35 -16 c-66 -30 -269 -140 -282 -152 -6 -7 -19 -13 -27 -13 -20
-1 -61 -34 -61 -50 0 -22 73 -121 114 -154 62 -50 124 -70 199 -64 35 3 72 10
83 16 10 5 30 15 44 21 27 13 51 27 92 55 57 38 119 166 118 244 -1 39 -24
120 -38 134 -7 7 -12 20 -12 30 0 23 -104 130 -146 151 -32 16 -159 29 -204
21z m212 -349 c8 -19 8 -35 0 -64 -23 -74 -97 -120 -164 -100 -34 9 -78 46
-78 64 0 11 203 124 223 125 4 0 13 -11 19 -25z"/>
<path d="M3782 2721 c-49 -13 -57 -24 -43 -60 6 -17 16 -44 22 -61 11 -29 13
-30 76 -30 115 0 180 -49 190 -144 5 -49 4 -56 -12 -56 -9 0 -29 8 -43 19 -15
10 -98 54 -184 97 -128 64 -161 77 -175 68 -30 -18 -56 -103 -60 -191 -4 -68
-1 -88 17 -125 39 -76 163 -178 218 -178 10 0 23 -5 30 -12 16 -16 148 -16
164 0 7 7 19 12 28 12 32 1 109 61 144 113 56 84 66 117 66 212 0 71 -4 94
-25 134 -65 129 -281 235 -413 202z m87 -397 c121 -62 123 -66 57 -112 -79
-54 -189 -1 -212 101 -6 27 16 67 37 67 5 0 58 -25 118 -56z"/>
<path d="M6458 2516 c-14 -8 -44 -17 -66 -21 -22 -3 -48 -13 -59 -20 -17 -13
-17 -15 0 -63 9 -27 17 -55 17 -62 0 -7 6 -26 13 -43 20 -48 45 -127 52 -169
14 -73 -53 -161 -136 -181 l-26 -7 26 -77 c23 -69 29 -78 52 -81 20 -2 37 8
73 43 25 26 46 55 46 65 0 9 6 23 13 29 11 9 17 3 30 -29 11 -29 21 -40 36
-40 24 0 152 39 165 51 7 6 -9 64 -76 274 -10 33 -22 69 -27 80 -4 11 -15 43
-23 70 -47 153 -63 195 -72 195 -6 0 -23 -6 -38 -14z"/>
<path d="M4473 2393 c-15 -32 -34 -64 -40 -71 -7 -7 -13 -17 -13 -22 0 -5 -19
-41 -43 -82 -23 -40 -62 -113 -87 -163 -25 -49 -51 -96 -57 -103 -7 -7 -13
-20 -13 -27 0 -8 -13 -33 -28 -57 -16 -24 -48 -78 -71 -121 -46 -86 -49 -81
44 -97 139 -25 119 -33 164 61 84 181 121 261 121 265 0 3 16 36 35 75 19 39
35 76 35 81 0 5 10 24 22 41 l23 32 8 -45 c4 -25 12 -112 17 -195 4 -82 13
-186 19 -230 7 -44 13 -100 14 -125 l2 -45 80 -12 c44 -6 89 -13 100 -15 20
-3 41 30 104 173 31 70 70 155 115 250 20 41 36 82 36 91 0 8 9 25 19 37 l20
23 5 -34 c14 -86 17 -124 26 -278 6 -91 15 -187 20 -213 6 -26 10 -61 10 -77
0 -16 6 -32 13 -37 24 -15 181 -31 190 -19 9 13 -1 144 -15 201 -5 22 -14 83
-19 135 -4 52 -13 111 -18 130 -5 19 -14 76 -20 125 -13 109 -34 269 -36 273
-1 1 -31 7 -66 12 -35 5 -84 13 -108 18 l-43 10 -25 -57 c-32 -73 -83 -182
-94 -201 -5 -8 -15 -28 -23 -45 -86 -184 -119 -247 -126 -234 -4 8 -10 71 -14
141 -4 70 -13 176 -21 235 -8 60 -15 134 -15 165 l0 56 -67 7 c-38 3 -81 11
-97 16 -47 15 -53 12 -83 -48z"/>
<path d="M5697 2337 c-22 -19 -27 -31 -27 -70 0 -63 31 -97 89 -97 50 0 101
46 101 91 0 37 -23 84 -45 93 -37 14 -92 6 -118 -17z"/>
</g>
</svg>
